<?xml version="1.0" encoding="UTF-8"?>
<svg height="16px" viewBox="0 0 16 16" width="16px" xmlns="http://www.w3.org/2000/svg" xmlns:xlink="http://www.w3.org/1999/xlink">
    <filter id="a" height="100%" width="100%" x="0%" y="0%">
        <feColorMatrix in="SourceGraphic" type="matrix" values="0 0 0 0 1 0 0 0 0 1 0 0 0 0 1 0 0 0 1 0"/>
    </filter>
    <mask id="b">
        <g filter="url(#a)">
            <rect fill-opacity="0.05" height="16" width="16"/>
        </g>
    </mask>
    <radialGradient id="c" cx="63.999996" cy="194.190475" gradientTransform="matrix(-4.136364 -0.00000125 -0.00000027 1.390909 -26.772701 157.365448)" gradientUnits="userSpaceOnUse" r="44">
        <stop offset="0" stop-color="#ffffff"/>
        <stop offset="1" stop-color="#ffffff" stop-opacity="0.094118"/>
    </radialGradient>
    <clipPath id="d">
        <rect height="152" width="192"/>
    </clipPath>
    <g clip-path="url(#d)" mask="url(#b)" transform="matrix(1 0 0 1 -168 -16)">
        <path d="m 24 120 h 84 v -68 h -84 z m 0 0" fill="url(#c)"/>
    </g>
    <path d="m 2 4 c -0.550781 0 -1 0.449219 -1 1 v 5 h 2 v -3 h 6 v 3 h 6 v -5 c 0 -0.550781 -0.449219 -1 -1 -1 z m 3 5 v 3 h -4 v 2 c 0 0.550781 0.449219 1 1 1 h 12 c 0.550781 0 1 -0.449219 1 -1 v -2 h -8 v -3 z m 0 0"/>
</svg>
